<mxfile host="Electron" agent="Mozilla/5.0 (X11; Linux x86_64) AppleWebKit/537.36 (KHTML, like Gecko) draw.io/26.0.16 Chrome/132.0.6834.196 Electron/34.2.0 Safari/537.36" version="26.0.16">
  <diagram name="Seite-1" id="c3ej4vT4nyOo6T_Is-6b">
    <mxGraphModel dx="756" dy="639" grid="1" gridSize="10" guides="1" tooltips="1" connect="1" arrows="1" fold="1" page="1" pageScale="1" pageWidth="827" pageHeight="1169" math="0" shadow="0">
      <root>
        <mxCell id="0" />
        <mxCell id="1" parent="0" />
        <mxCell id="BfWytJAH_e0osU_aniQq-2" value="LOVER" style="ellipse;whiteSpace=wrap;html=1;aspect=fixed;" parent="1" vertex="1">
          <mxGeometry x="350" y="210" width="80" height="80" as="geometry" />
        </mxCell>
        <mxCell id="BfWytJAH_e0osU_aniQq-3" value="EXPLORER AWAY" style="ellipse;whiteSpace=wrap;html=1;aspect=fixed;" parent="1" vertex="1">
          <mxGeometry x="580" y="20" width="80" height="80" as="geometry" />
        </mxCell>
        <mxCell id="BfWytJAH_e0osU_aniQq-4" value="EXPLORER CHOOSER" style="ellipse;whiteSpace=wrap;html=1;aspect=fixed;" parent="1" vertex="1">
          <mxGeometry x="620" y="240" width="80" height="80" as="geometry" />
        </mxCell>
        <mxCell id="BfWytJAH_e0osU_aniQq-5" value="" style="endArrow=classic;html=1;rounded=0;entryX=-0.025;entryY=0.619;entryDx=0;entryDy=0;entryPerimeter=0;" parent="1" target="BfWytJAH_e0osU_aniQq-2" edge="1">
          <mxGeometry width="50" height="50" relative="1" as="geometry">
            <mxPoint x="270" y="260" as="sourcePoint" />
            <mxPoint x="440" y="220" as="targetPoint" />
          </mxGeometry>
        </mxCell>
        <mxCell id="BfWytJAH_e0osU_aniQq-6" value="start" style="edgeLabel;html=1;align=center;verticalAlign=middle;resizable=0;points=[];" parent="BfWytJAH_e0osU_aniQq-5" vertex="1" connectable="0">
          <mxGeometry x="-0.3846" relative="1" as="geometry">
            <mxPoint as="offset" />
          </mxGeometry>
        </mxCell>
        <mxCell id="BfWytJAH_e0osU_aniQq-7" value="" style="endArrow=classic;html=1;rounded=0;exitX=0.75;exitY=0.075;exitDx=0;exitDy=0;exitPerimeter=0;entryX=0.063;entryY=0.788;entryDx=0;entryDy=0;entryPerimeter=0;" parent="1" source="BfWytJAH_e0osU_aniQq-2" target="BfWytJAH_e0osU_aniQq-3" edge="1">
          <mxGeometry width="50" height="50" relative="1" as="geometry">
            <mxPoint x="410" y="270" as="sourcePoint" />
            <mxPoint x="460" y="220" as="targetPoint" />
          </mxGeometry>
        </mxCell>
        <mxCell id="BfWytJAH_e0osU_aniQq-8" value="Equilibrium" style="edgeLabel;html=1;align=center;verticalAlign=middle;resizable=0;points=[];" parent="BfWytJAH_e0osU_aniQq-7" vertex="1" connectable="0">
          <mxGeometry x="0.1721" y="3" relative="1" as="geometry">
            <mxPoint as="offset" />
          </mxGeometry>
        </mxCell>
        <mxCell id="BfWytJAH_e0osU_aniQq-9" value="Away from Obstacle" style="endArrow=classic;html=1;rounded=0;exitX=0.95;exitY=0.794;exitDx=0;exitDy=0;exitPerimeter=0;" parent="1" source="BfWytJAH_e0osU_aniQq-3" target="BfWytJAH_e0osU_aniQq-4" edge="1">
          <mxGeometry width="50" height="50" relative="1" as="geometry">
            <mxPoint x="430" y="270" as="sourcePoint" />
            <mxPoint x="480" y="220" as="targetPoint" />
            <Array as="points">
              <mxPoint x="740" y="160" />
            </Array>
          </mxGeometry>
        </mxCell>
        <mxCell id="BfWytJAH_e0osU_aniQq-12" value="" style="endArrow=classic;html=1;rounded=0;exitX=0.194;exitY=0.056;exitDx=0;exitDy=0;exitPerimeter=0;entryX=0.369;entryY=1.013;entryDx=0;entryDy=0;entryPerimeter=0;" parent="1" source="BfWytJAH_e0osU_aniQq-4" target="BfWytJAH_e0osU_aniQq-3" edge="1">
          <mxGeometry width="50" height="50" relative="1" as="geometry">
            <mxPoint x="430" y="270" as="sourcePoint" />
            <mxPoint x="480" y="220" as="targetPoint" />
            <Array as="points">
              <mxPoint x="570" y="190" />
            </Array>
          </mxGeometry>
        </mxCell>
        <mxCell id="BfWytJAH_e0osU_aniQq-14" value="Obstacle Encounter" style="edgeLabel;html=1;align=center;verticalAlign=middle;resizable=0;points=[];" parent="BfWytJAH_e0osU_aniQq-12" vertex="1" connectable="0">
          <mxGeometry x="0.0459" y="3" relative="1" as="geometry">
            <mxPoint as="offset" />
          </mxGeometry>
        </mxCell>
        <mxCell id="BfWytJAH_e0osU_aniQq-15" value="" style="endArrow=classic;html=1;rounded=0;exitX=0;exitY=0.5;exitDx=0;exitDy=0;entryX=0.994;entryY=0.644;entryDx=0;entryDy=0;entryPerimeter=0;" parent="1" source="BfWytJAH_e0osU_aniQq-4" target="BfWytJAH_e0osU_aniQq-2" edge="1">
          <mxGeometry width="50" height="50" relative="1" as="geometry">
            <mxPoint x="430" y="270" as="sourcePoint" />
            <mxPoint x="480" y="220" as="targetPoint" />
          </mxGeometry>
        </mxCell>
        <mxCell id="BfWytJAH_e0osU_aniQq-16" value="Obstacle Encounter" style="edgeLabel;html=1;align=center;verticalAlign=middle;resizable=0;points=[];" parent="BfWytJAH_e0osU_aniQq-15" vertex="1" connectable="0">
          <mxGeometry x="0.0941" relative="1" as="geometry">
            <mxPoint as="offset" />
          </mxGeometry>
        </mxCell>
      </root>
    </mxGraphModel>
  </diagram>
</mxfile>
